<svg xmlns="http://www.w3.org/2000/svg" width="312.07" height="54.31" viewBox="0 0 312.07 54.31"><title>Isuzu logo - Brandlogos.net</title><path d="M371.61,485.18c-1.12-.12-11.62-.16-13.3,0s-2.35.9-2.35,2.73v49c0,2.22,1.54,2.16,3.09,2.24,1,.06,11.09.07,12.23,0,2.36-.16,2.48-1.38,2.49-3.43,0-3.51,0-44.44,0-47.94,0-1.66-.41-2.37-2.16-2.55" transform="translate(-355.96 -484.85)" style="fill:#e60012"/><path d="M447,533.17c3.47-4.63,4-14.2-4.89-19-5-2.75-31.42-11.31-36.85-13.48-1.52-.61-2-1.3-1.76-2.19.25-1.08,1.75-1,2.41-1.06s6,0,38.81.16c1.84,0,2.68-.46,2.89-2.34.1-1,.06-6.47,0-7.06-.08-2.13-.42-3-2.83-3-2.7,0-34.9-.13-45,.23-11.34.42-14.7,5.74-15.5,11.19A12.93,12.93,0,0,0,390.64,510c4.86,3,21.63,8.13,37.11,13.71,2.49.9,2.71,1.79,2.31,2.59-.26.55-1.39.65-2.88.66-3.85,0-36.78-.49-38.74-.43-2.41.06-2.85.77-2.91,3.28,0,.59,0,5.1,0,5.76,0,2.34.43,3.22,2.77,3.24,13.94.14,38,.26,43.08.1,8.09-.26,12.53-1.64,15.63-5.79" transform="translate(-355.96 -484.85)" style="fill:#e60012"/><path d="M594.67,492c-2-4.78-6.24-6.7-14.76-7-6.59-.23-44.1,0-45,0-2.64,0-2.81,1.08-2.85,3.4,0,.59,0,5.87.06,6.74.17,1.93,1.46,2.14,2.81,2.14.87,0,37.15-.24,39.63-.23,1.17,0,1.65.39,1.72,1.13s-.31,1-1.17,1.44c-11.14,5.14-29.8,13.22-35.36,15.94-8.11,4-10,8.55-9.54,13.15.49,5.12,3.62,9.66,15.08,10,10.07.32,38.9-.1,46-.27,2.55-.06,2.67-1,2.88-2.81.09-.76,0-4.8,0-5.39,0-3.22-.37-4-3.17-4-2.18,0-30.43.58-38.48.49-1.28,0-1.64-.69-1.21-1.44.27-.47,1.11-.9,2.71-1.62,6.74-3,25.31-10.73,34.63-16.33,5.55-3.32,8.69-9.12,6-15.41" transform="translate(-355.96 -484.85)" style="fill:#e60012"/><path d="M518.3,485.08c-1.65-.13-11.8-.14-12.84,0-1.3.15-2.44.37-2.44,2.76,0,1.55,0,24.31,0,28.72,0,5.66-.92,9.47-7.84,9.92a64.51,64.51,0,0,1-10.91-.09c-6.57-.59-7.83-2.83-7.83-10.74,0-4.93.06-25.38.06-27.37s-.21-3.06-2.62-3.15c-1.72-.07-11.26-.07-12.32,0-1.28.07-2.57.34-2.57,2.81,0,1.47-.13,18.4,0,32.54.17,18.27,12.62,17.82,18.47,18.32,3.54.3,19.3.37,26.32-.15,12.76-.95,16.28-7.53,16.57-16.82.19-6.12.35-28.19.26-33.59,0-2-.36-3-2.32-3.13" transform="translate(-355.96 -484.85)" style="fill:#e60012"/><path d="M668,487.86c0-1.81-.43-2.79-2.35-2.93s-11.53-.08-12.4,0c-2.07.17-2.59.75-2.63,2.68,0,1.54,0,25.9-.12,30.22-.13,6.37-2.25,7.23-5.3,8s-13,.56-14.23.4c-3.84-.51-6.3-2-6.38-8.33-.09-6.09-.07-28.24-.07-30.23s-.81-2.57-2.47-2.67c-1.47-.09-10.5-.13-12.65,0-2.52.15-2.63,1.21-2.66,3.1-.07,3.72-.14,30.24.26,34.67.95,10.48,6,14.75,15,15.5,8.25.69,27.92.8,33.88-.59,9.63-2.25,11.6-9.79,12-19.28.23-5,.12-28.24.12-30.53" transform="translate(-355.96 -484.85)" style="fill:#e60012"/></svg>